<?xml version="1.0" encoding="utf-8"?>
<!-- Generator: Adobe Illustrator 27.4.1, SVG Export Plug-In . SVG Version: 6.00 Build 0)  -->
<svg version="1.1" id="Layer_1" xmlns:serif="http://www.serif.com/"
	 xmlns="http://www.w3.org/2000/svg" xmlns:xlink="http://www.w3.org/1999/xlink" x="0px" y="0px" viewBox="0 0 1010.9 930.9"
	 style="enable-background:new 0 0 1010.9 930.9;" xml:space="preserve">
<style type="text/css">
	.st0{fill:none;}
	.st1{fill-rule:evenodd;clip-rule:evenodd;fill:#118979;}
	.st2{fill-rule:evenodd;clip-rule:evenodd;fill:#149C8B;}
</style>
<g transform="matrix(1,0,0,1,-1339,0)">
	<g transform="matrix(0.862194,0,0,1.01029,1279.19,36.8297)">
		<rect id="No-Bg" x="29.7" y="-109.9" serif:id="No Bg" class="st0" width="1251.7" height="1068.3">
		</rect>
		<g id="No-Bg1" serif:id="No Bg">
			<g transform="matrix(1.15983,0,0,0.989813,-103.977,-35.1696)">
				<g transform="matrix(1,0,0,1,-569.977,-312.934)">
					<path class="st1" d="M1730.3,724.8c0.8,148.9-23.4,272.5-72.7,370.6c-49.3,98.1-111.5,147.1-186.8,147.1
						c-84.1,0-152.9-44.4-206.6-133.3c-42.4-27.2-63.7-54.1-63.7-80.5c0-6.4,1.2-12.8,3.6-19.2c10.4-28,44-42,100.9-42
						c44,0,75.3,9.6,93.7,28.8c6.4,7.2,9.6,16.4,9.6,27.6c0,3.2-0.4,8.4-1.2,15.6c-0.8,7.2-1.2,12.4-1.2,15.6c0,11.2,4,20,12,26.4
						c5.6,22.4,18.4,33.2,38.4,32.4c17.6-0.8,36.8-27.2,57.6-79.3c20.8-52.1,32.8-104.9,36-158.6c-24.8,32.8-58.5,49.2-100.9,49.2
						c-66.5,0-121.3-26-164.6-78.1c-40-47.2-62.1-105.7-66.1-175.4c-3.2-56.1,14.8-122.9,54.1-200.6c44.8-90.5,96.5-135.7,155-135.7
						c92.1,0,165.4,34.6,219.8,103.9C1701.9,508.8,1729.5,603.9,1730.3,724.8z M1528.5,646.8c4-19.2,6-40.8,6-64.9
						c0-63.3-11.6-98.1-34.8-104.5c-21.6-5.6-43.6,8.8-66.1,43.2c-20,28.8-34,62.1-42,99.7c-5.6,24-8.4,48.4-8.4,73.3
						c0,64.9,17.2,100.9,51.7,108.1c17.6,4,36.4-12.4,56.5-49.2C1508.1,720.4,1520.5,685.2,1528.5,646.8z"/>
				</g>
				<g transform="matrix(7.4705,0,0,7.4705,-3607.69,-3511.85)">
					<path class="st2" d="M575.1,501.9c-1.4,3.8-6,5.8-13.8,5.8c-6,0-10.3-1.3-12.8-4c-0.9-1-1.3-2.2-1.3-3.6c0-0.5,0.1-1.3,0.2-2.2
						c0.1-0.9,0.2-1.7,0.2-2.2c0-1.4-0.5-2.6-1.6-3.5c-0.8-3.2-2.5-4.7-5.3-4.4c-2.4,0.1-5.1,3.7-7.9,10.8
						c-2.9,7.1-4.5,14.4-4.9,21.8c3.4-4.6,8-6.9,13.8-6.9c9.1,0,16.6,3.6,22.6,10.7c5.5,6.6,8.5,14.6,9.1,24
						c0.4,7.7-2,16.9-7.4,27.5c-6.1,12.4-13.2,18.6-21.2,18.6c-12.6,0-22.7-4.7-30.1-14.2c-7.5-9.5-11.3-22.5-11.4-39
						c-0.1-20.4,3.2-37.4,10-50.9c6.8-13.5,15.3-20.3,25.6-20.3c11.5,0,21,6.1,28.3,18.3c5.8,3.8,8.7,7.5,8.7,11
						C575.6,500.1,575.4,501,575.1,501.9z M549.4,555.2c0.8-3.2,1.2-6.5,1.2-9.9c0-9-2.4-14-7.1-15c-2.4-0.4-5,1.8-7.7,6.8
						c-2.3,4.4-4,9.3-5.1,14.7c-0.5,2.6-0.8,5.6-0.8,8.9c0,8.7,1.6,13.4,4.8,14.2c3,0.8,6-1.2,9.1-5.8
						C546.4,565,548.3,560.4,549.4,555.2z"/>
				</g>
			</g>
		</g>
	</g>
</g>
</svg>
